<?xml version="1.0" encoding="UTF-8"?>
<svg width="44px" height="44px" viewBox="0 0 44 44" version="1.1" xmlns="http://www.w3.org/2000/svg" xmlns:xlink="http://www.w3.org/1999/xlink">
    <title>customerSupport</title>
    <g id="Symbols" stroke="none" stroke-width="1" fill="none" fill-rule="evenodd">
        <g id="trustbuilding/desktop" transform="translate(-735.000000, -6.000000)">
            <g id="Group" transform="translate(165.000000, 0.000000)">
                <g id="Group-21-Copy" transform="translate(570.000000, 0.000000)">
                    <g id="Group-7" transform="translate(0.000000, 6.000000)">
                        <rect id="Rectangle" fill="#BAE2E3" x="0" y="0" width="44" height="44" rx="22"></rect>
                        <g id="headphone-with-mic(24x24)@1x" transform="translate(10.266667, 9.533333)" stroke="#221B38" stroke-linecap="round" stroke-linejoin="round" stroke-width="1.6076555">
                            <path d="M11.0577132,24.2934609 C16.261343,24.2934609 20.8145191,21.8641148 20.8145191,17.0054226" id="Path"></path>
                            <path d="M11.0577132,24.2934609 C12.135385,24.2934609 13.0090744,23.4776865 13.0090744,22.4714514 C13.0090744,21.4652162 12.135385,20.6494418 11.0577132,20.6494418 C9.98004152,20.6494418 9.10635209,21.4652162 9.10635209,22.4714514 C9.10635209,23.4776865 9.98004152,24.2934609 11.0577132,24.2934609 Z" id="Path" fill-rule="nonzero"></path>
                            <path d="M18.2127042,17.0054226 L20.1640653,17.0054226 C21.9603583,17.0054226 23.4163339,15.6462035 23.4163339,13.968983 C23.4163339,13.1505363 23.4163339,12.3087678 23.4163339,11.5385437 C23.4163339,9.86144459 21.9603583,8.50271132 20.1640653,8.50271132 L18.2127042,8.50271132 L18.2127042,17.0054226 Z" id="Path" fill-rule="nonzero"></path>
                            <path d="M5.20362976,17.0054226 L3.25220356,17.0054226 C1.45602764,17.0054226 -6.50453721e-05,15.6462035 -6.50453721e-05,13.968983 C-6.50453721e-05,13.1505363 -6.50453721e-05,12.3087678 -6.50453721e-05,11.5385437 C-6.50453721e-05,9.86144459 1.45602764,8.50271132 3.25220356,8.50271132 L5.20362976,8.50271132 L5.20362976,17.0054226 Z" id="Path" fill-rule="nonzero"></path>
                            <path d="M20.8145191,8.50271132 C20.8145191,3.03668262 16.9117967,0 11.708167,0 C6.50453721,0 2.60181488,3.03668262 2.60181488,8.50271132" id="Path"></path>
                        </g>
                    </g>
                </g>
            </g>
        </g>
    </g>
</svg>