<svg width="44" height="44" viewBox="0 0 44 44" fill="none" xmlns="http://www.w3.org/2000/svg">
<rect width="44" height="44" rx="22" fill="#FFD7D8"/>
<path fill-rule="evenodd" clip-rule="evenodd" d="M22.5932 10.625C20.005 10.625 17.6119 11.4668 15.665 12.8808C15.049 12.0495 14.0742 11.5 12.9682 11.5C11.108 11.5 9.59424 13.0295 9.59424 14.8994C9.59424 15.4392 9.81124 15.9879 10.1017 16.5549C10.3931 17.1228 10.7676 17.7003 11.143 18.2235C11.248 18.3688 11.3276 18.458 11.43 18.5936C11.0017 19.83 10.7823 21.1291 10.7807 22.4375C10.7807 28.9562 16.0745 34.25 22.5932 34.25C29.112 34.25 34.4057 28.9562 34.4057 22.4375C34.4057 15.9188 29.112 10.625 22.5932 10.625ZM22.1557 11.5184V15.875H18.3582C19.1615 14.174 20.2614 12.6988 21.5765 11.5499C21.7672 11.5324 21.9615 11.5262 22.1557 11.5184ZM23.0307 11.5219C23.2294 11.5306 23.4297 11.5333 23.6257 11.5516C24.7529 12.5479 25.6988 13.7321 26.4214 15.0516C26.1676 15.2896 25.9576 15.5679 25.787 15.875H23.0307V11.5219ZM20.0417 11.8062C18.9327 13.0029 18.0343 14.3785 17.3844 15.875H16.1279C16.2504 15.5451 16.3414 15.2205 16.3414 14.8994C16.3414 14.4566 16.2495 14.0349 16.0955 13.6464C17.2733 12.7731 18.6157 12.1472 20.0417 11.8062ZM25.1465 11.8106C26.977 12.2481 28.6237 13.1441 29.9677 14.3726C29.5708 14.2101 29.1462 14.126 28.7174 14.125C28.1631 14.1293 27.6188 14.2728 27.1345 14.5424C26.583 13.5557 25.9153 12.6385 25.1456 11.8106H25.1465ZM12.9682 12.375C14.3507 12.375 15.4664 13.4985 15.4664 14.8994C15.4664 15.1768 15.3159 15.6492 15.056 16.1567C14.7961 16.6642 14.4382 17.2129 14.0786 17.7143C13.5239 18.4886 13.1922 18.8517 12.9674 19.1099C12.7442 18.8517 12.4109 18.4886 11.8561 17.7143C11.4965 17.2129 11.1395 16.6642 10.8796 16.1567C10.6197 15.6492 10.4692 15.1768 10.4692 14.8994C10.4692 13.4985 11.5849 12.375 12.9682 12.375ZM12.9682 13.145C12.1895 13.145 11.5507 13.7899 11.5507 14.5695C11.5507 15.3482 12.1895 15.9931 12.9682 15.9931C13.747 15.9931 14.3849 15.3491 14.3849 14.5695C14.3842 14.1932 14.2348 13.8324 13.9693 13.5658C13.7038 13.2991 13.3437 13.1482 12.9674 13.1459L12.9682 13.145ZM12.9682 14.02C13.2701 14.02 13.5099 14.2589 13.5099 14.5695C13.5113 14.6415 13.4982 14.713 13.4716 14.7799C13.4449 14.8468 13.4051 14.9077 13.3546 14.959C13.304 15.0103 13.2437 15.0509 13.1772 15.0786C13.1107 15.1062 13.0394 15.1202 12.9674 15.1199C12.8954 15.12 12.8242 15.1058 12.7578 15.078C12.6915 15.0502 12.6313 15.0094 12.581 14.9581C12.5306 14.9067 12.491 14.8458 12.4645 14.7789C12.438 14.712 12.4251 14.6405 12.4266 14.5686C12.4266 14.2589 12.6664 14.02 12.9682 14.02ZM28.7182 15C30.1007 15 31.2164 16.1235 31.2164 17.5244C31.2164 17.8018 31.0641 18.2742 30.8051 18.7817C30.5452 19.2892 30.1891 19.8379 29.8304 20.3393C29.2756 21.1136 28.9422 21.4767 28.7182 21.7349C28.4942 21.4767 28.1609 21.1136 27.6052 20.3393C27.2465 19.8379 26.8912 19.2892 26.6314 18.7817C26.3715 18.2742 26.2201 17.8018 26.2201 17.5244C26.2192 16.1235 27.3349 15 28.7182 15ZM28.7182 15.77C27.9395 15.77 27.3007 16.4149 27.3007 17.1945C27.3007 17.9733 27.9395 18.6181 28.7182 18.6181C29.497 18.6181 30.1331 17.9741 30.1331 17.1945C30.1331 16.4158 29.497 15.77 28.7182 15.77ZM28.7182 16.645C29.0201 16.645 29.2581 16.8839 29.2581 17.1945C29.2596 17.2662 29.2468 17.3375 29.2203 17.4042C29.1938 17.4709 29.1542 17.5316 29.1039 17.5827C29.0536 17.6338 28.9935 17.6744 28.9273 17.7019C28.8611 17.7295 28.79 17.7435 28.7182 17.7431C28.6465 17.7435 28.5754 17.7295 28.5092 17.7019C28.4429 17.6744 28.3829 17.6338 28.3326 17.5827C28.2822 17.5316 28.2427 17.4709 28.2162 17.4042C28.1897 17.3375 28.1768 17.2662 28.1784 17.1945C28.1784 16.8839 28.4164 16.645 28.7182 16.645ZM15.7227 16.75H17.0335C16.4176 18.4339 16.0821 20.2075 16.0404 22H11.6759C11.7109 21.1128 11.8439 20.2526 12.0784 19.4327C12.4021 19.83 12.6419 20.1047 12.6419 20.1047C12.6829 20.1507 12.7332 20.1875 12.7894 20.2127C12.8457 20.2379 12.9066 20.2509 12.9682 20.2509C13.0299 20.2509 13.0908 20.2379 13.147 20.2127C13.2033 20.1875 13.2536 20.1507 13.2946 20.1047C13.2946 20.1047 14.0419 19.27 14.7909 18.2235C15.1234 17.7597 15.4489 17.254 15.7227 16.75ZM17.989 16.75H22.1557V22H16.9162C16.9644 20.2009 17.328 18.424 17.989 16.75ZM23.0307 16.75H25.4405C25.3819 16.9994 25.3442 17.2575 25.3442 17.5244C25.3442 18.0642 25.5612 18.6129 25.8517 19.1799C26.1586 19.7605 26.5072 20.3182 26.8947 20.8485C27.2185 21.3 27.5221 21.6771 27.7846 22H23.0307V16.75ZM32.0319 16.9259C32.9338 18.4701 33.4408 20.213 33.508 22H29.651C29.9135 21.6771 30.2171 21.3 30.5417 20.8485C30.9162 20.3252 31.2942 19.7478 31.5856 19.1799C31.8761 18.6129 32.0914 18.0642 32.0914 17.5244C32.0914 17.3196 32.066 17.121 32.0319 16.9259ZM11.6776 22.875H16.0412C16.0829 24.6675 16.4184 26.4411 17.0344 28.125H13.2631C12.2951 26.5391 11.7499 24.7316 11.6794 22.875H11.6776ZM16.9171 22.875H22.1557V28.125H17.989C17.328 26.451 16.9653 24.6741 16.9171 22.875ZM23.0307 22.875H28.2527C28.1609 24.5226 27.7094 26.3339 26.9236 28.125H23.0299L23.0307 22.875ZM29.1312 22.875H33.508C33.438 24.7314 32.8934 26.539 31.926 28.125H27.8747C28.6132 26.3488 29.0464 24.5515 29.1312 22.875ZM13.8546 29H17.3844C18.0332 30.4938 18.9295 31.8673 20.0356 33.0626C17.5656 32.4689 15.3791 31.0322 13.8546 29ZM18.3582 29H22.1557V33.3531C21.9632 33.3444 21.7681 33.3409 21.5782 33.3234C20.2622 32.1745 19.1615 30.701 18.3582 29ZM23.0307 29H26.4984C25.718 30.5687 24.7284 32.0243 23.5566 33.3269C23.3834 33.3426 23.2066 33.3461 23.0307 33.3531V29ZM27.481 29H31.3327C29.7499 31.1145 27.4541 32.5835 24.8709 33.1344C25.9038 31.8661 26.7801 30.4779 27.481 29Z" fill="black"/>
</svg>
